<svg xmlns="http://www.w3.org/2000/svg" width="494" height="287" fill="none" viewBox="0 0 494 287">
  <path fill="#00D2FF" fill-rule="evenodd" d="M393.63 221.673c-19.559 0-35.426-15.859-35.426-35.426s15.867-35.427 35.426-35.427c19.567 0 35.427 15.86 35.427 35.427s-15.86 35.426-35.427 35.426Zm0-135.623c-55.337 0-100.196 44.859-100.196 100.197 0 55.337 44.859 100.196 100.196 100.196 55.338 0 100.197-44.859 100.197-100.196 0-55.338-44.859-100.197-100.197-100.197Z" clip-rule="evenodd"/>
  <path fill="#00D2FF" d="M71.57 86.05H0v200.393h71.57V86.05Z"/>
  <path fill="#00D2FF" fill-rule="evenodd" d="M186.08 136.148 135.981 86.05H85.883v50.098l50.098 50.099-50.098 50.098v50.098h50.098l50.099-50.098 50.098 50.098h50.099v-50.098l-50.099-50.098 50.099-50.099V86.05h-50.099l-50.098 50.098ZM35.785 71.736C16.025 71.736 0 55.712 0 35.952 0 16.192 16.024.167 35.785.167c19.76 0 35.784 16.024 35.784 35.785 0 19.76-16.024 35.784-35.784 35.784Z" clip-rule="evenodd"/>
</svg>
