<svg width="220" height="127" viewBox="0 0 220 127" fill="none" xmlns="http://www.w3.org/2000/svg">
<path fill-rule="evenodd" clip-rule="evenodd" d="M175.362 97.9405C166.648 97.9405 159.58 90.9282 159.58 82.2766C159.58 73.6251 166.648 66.6127 175.362 66.6127C184.079 66.6127 191.145 73.6251 191.145 82.2766C191.145 90.9282 184.079 97.9405 175.362 97.9405ZM175.362 37.9746C150.71 37.9746 130.725 57.8092 130.725 82.2766C130.725 106.744 150.71 126.579 175.362 126.579C200.015 126.579 220 106.744 220 82.2766C220 57.8092 200.015 37.9746 175.362 37.9746Z" fill="white"/>
<path d="M31.8841 37.9746H0.00012207V126.579H31.8841V37.9746Z" fill="white"/>
<path fill-rule="evenodd" clip-rule="evenodd" d="M82.8991 60.1256L60.5803 37.9746H38.2615V60.1256L60.5803 82.2766L38.2615 104.428V126.579H60.5803L82.8991 104.428L105.218 126.579H127.537V104.428L105.218 82.2766L127.537 60.1256V37.9746H105.218L82.8991 60.1256Z" fill="white"/>
<path fill-rule="evenodd" clip-rule="evenodd" d="M15.942 31.6443C7.13883 31.6443 0 24.5591 0 15.8221C0 7.08516 7.13883 0 15.942 0C24.7452 0 31.884 7.08516 31.884 15.8221C31.884 24.5591 24.7452 31.6443 15.942 31.6443Z" fill="white"/>
</svg>

