<?xml version="1.0" encoding="UTF-8" standalone="no"?>
<!DOCTYPE svg PUBLIC "-//W3C//DTD SVG 1.1//EN" "http://www.w3.org/Graphics/SVG/1.1/DTD/svg11.dtd">
<svg width="100%" height="100%" viewBox="0 0 36 21" version="1.1" xmlns="http://www.w3.org/2000/svg" xmlns:xlink="http://www.w3.org/1999/xlink" xml:space="preserve" xmlns:serif="http://www.serif.com/" style="fill-rule:evenodd;clip-rule:evenodd;stroke-linejoin:round;stroke-miterlimit:2;">
    <g transform="matrix(1,0,0,1,-14.2222,-3.68519)">
        <g transform="matrix(1,0,0,1,-2,-5)">
            <g id="Symbols">
                <g transform="matrix(0.515298,0,0,0.515298,16.2222,8.68519)">
                    <g id="Header-Marketing">
                        <g id="Header-Singed-In-Final">
                            <g id="ixo-logo-copy">
                                <path id="Fill-2" d="M55,30.95C52.267,30.95 50.05,28.734 50.05,26C50.05,23.266 52.267,21.05 55,21.05C57.734,21.05 59.95,23.266 59.95,26C59.95,28.734 57.734,30.95 55,30.95M55,12C47.268,12 41,18.268 41,26C41,33.732 47.268,40 55,40C62.732,40 69,33.732 69,26C69,18.268 62.732,12 55,12" style="fill:rgb(235,235,235);"/>
                                <rect id="Fill-4" x="0" y="12" width="10" height="28" style="fill:rgb(235,235,235);"/>
                                <path id="Fill-6" d="M26,19L19,12L12,12L12,19L19,26L12,33L12,40L19,40L26,33L33,40L40,40L40,33L33,26L40,19L40,12L33,12L26,19Z" style="fill:rgb(235,235,235);"/>
                                <path id="Fill-8" d="M5,10C2.239,10 0,7.761 0,5C0,2.239 2.239,0 5,0C7.761,0 10,2.239 10,5C10,7.761 7.761,10 5,10" style="fill:rgb(235,235,235);"/>
                            </g>
                        </g>
                    </g>
                </g>
                <g transform="matrix(1.16364,0,0,1.3617,-4.98182,-4.53191)">
                    <rect x="6" y="7" width="55" height="23.5" style="fill:none;"/>
                </g>
            </g>
        </g>
    </g>
</svg>
