<svg width="700" height="320" viewBox="0 0 700 320" fill="none" xmlns="http://www.w3.org/2000/svg">
<g clip-path="url(#clip0_7_835)">
<rect width="700" height="320" rx="20" transform="matrix(-1 0 0 1 700 0)" fill="url(#paint0_linear_7_835)"/>
<g filter="url(#filter0_f_7_835)">
<ellipse cx="725.809" cy="-28.1508" rx="218.27" ry="232.821" fill="#06A6E0"/>
</g>
<path d="M667.039 239.323C667.039 238.745 667.501 238.282 668.079 238.282C668.657 238.282 669.12 238.745 669.12 239.323C669.12 239.9 668.657 240.363 668.079 240.363C667.501 240.363 667.039 239.9 667.039 239.323Z" fill="white"/>
<path d="M655.444 257.191C655.444 256.544 655.964 256.023 656.611 256.023C657.259 256.023 657.779 256.544 657.779 257.191C657.779 257.838 657.259 258.358 656.611 258.358C655.964 258.358 655.444 257.826 655.444 257.191Z" fill="white"/>
<path d="M643.837 273.938C643.837 273.221 644.415 272.643 645.132 272.643C645.848 272.643 646.426 273.221 646.426 273.938C646.426 274.654 645.848 275.232 645.132 275.232C644.415 275.232 643.837 274.654 643.837 273.938Z" fill="white"/>
<path d="M632.218 289.391C632.218 288.593 632.866 287.957 633.652 287.957C634.438 287.957 635.085 288.605 635.085 289.391C635.085 290.188 634.438 290.824 633.652 290.824C632.866 290.824 632.218 290.188 632.218 289.391Z" fill="white"/>
<path d="M620.6 303.317C620.6 302.451 621.305 301.746 622.172 301.746C623.039 301.746 623.744 302.451 623.744 303.317C623.744 304.184 623.039 304.889 622.172 304.889C621.305 304.889 620.6 304.184 620.6 303.317Z" fill="white"/>
<path d="M608.982 315.441C608.982 314.494 609.756 313.719 610.704 313.719C611.652 313.719 612.427 314.494 612.427 315.441C612.427 316.389 611.652 317.163 610.704 317.163C609.756 317.163 608.982 316.389 608.982 315.441Z" fill="white"/>
<path d="M645.397 241.738C645.397 241.16 645.86 240.698 646.438 240.698C647.016 240.698 647.478 241.16 647.478 241.738C647.478 242.316 647.016 242.778 646.438 242.778C645.871 242.778 645.397 242.305 645.397 241.738Z" fill="white"/>
<path d="M633.791 254.763C633.791 254.116 634.311 253.596 634.958 253.596C635.606 253.596 636.126 254.116 636.126 254.763C636.126 255.411 635.606 255.931 634.958 255.931C634.311 255.931 633.791 255.399 633.791 254.763Z" fill="white"/>
<path d="M622.184 267.454C622.184 266.738 622.762 266.16 623.479 266.16C624.195 266.16 624.773 266.738 624.773 267.454C624.773 268.171 624.195 268.749 623.479 268.749C622.762 268.749 622.184 268.171 622.184 267.454Z" fill="white"/>
<path d="M610.566 279.74C610.566 278.942 611.213 278.307 611.999 278.307C612.785 278.307 613.433 278.954 613.433 279.74C613.433 280.526 612.785 281.173 611.999 281.173C611.213 281.173 610.566 280.537 610.566 279.74Z" fill="white"/>
<path d="M598.947 291.494C598.947 290.627 599.653 289.922 600.52 289.922C601.387 289.922 602.092 290.627 602.092 291.494C602.092 292.36 601.387 293.065 600.52 293.065C599.653 293.065 598.947 292.372 598.947 291.494Z" fill="white"/>
<path d="M587.317 302.578C587.317 301.63 588.092 300.856 589.04 300.856C589.987 300.856 590.762 301.63 590.762 302.578C590.762 303.525 589.987 304.3 589.04 304.3C588.092 304.3 587.317 303.525 587.317 302.578Z" fill="white"/>
<path d="M575.687 312.783C575.687 311.743 576.531 310.911 577.56 310.911C578.601 310.911 579.433 311.754 579.433 312.783C579.433 313.812 578.589 314.655 577.56 314.655C576.52 314.655 575.687 313.823 575.687 312.783Z" fill="white"/>
<path d="M564.034 321.89C564.034 320.769 564.948 319.856 566.069 319.856C567.19 319.856 568.104 320.769 568.104 321.89C568.104 323.012 567.19 323.925 566.069 323.925C564.948 323.936 564.034 323.023 564.034 321.89Z" fill="white"/>
<path d="M623.768 242.871C623.768 242.293 624.23 241.831 624.808 241.831C625.387 241.831 625.849 242.293 625.849 242.871C625.849 243.449 625.387 243.911 624.808 243.911C624.23 243.911 623.768 243.449 623.768 242.871Z" fill="white"/>
<path d="M612.149 252.059C612.149 251.412 612.669 250.892 613.317 250.892C613.964 250.892 614.484 251.412 614.484 252.059C614.484 252.706 613.964 253.226 613.317 253.226C612.669 253.226 612.149 252.706 612.149 252.059Z" fill="white"/>
<path d="M600.542 261.548C600.542 260.831 601.12 260.254 601.837 260.254C602.554 260.254 603.132 260.831 603.132 261.548C603.132 262.265 602.554 262.843 601.837 262.843C601.12 262.843 600.542 262.265 600.542 261.548Z" fill="white"/>
<path d="M588.912 271.303C588.912 270.505 589.56 269.87 590.346 269.87C591.144 269.87 591.779 270.517 591.779 271.303C591.779 272.1 591.132 272.736 590.346 272.736C589.56 272.736 588.912 272.089 588.912 271.303Z" fill="white"/>
<path d="M577.295 281.3C577.295 280.433 578 279.728 578.867 279.728C579.734 279.728 580.439 280.433 580.439 281.3C580.439 282.167 579.734 282.872 578.867 282.872C578 282.872 577.295 282.178 577.295 281.3Z" fill="white"/>
<path d="M565.665 291.506C565.665 290.558 566.439 289.784 567.387 289.784C568.335 289.784 569.11 290.558 569.11 291.506C569.11 292.453 568.335 293.228 567.387 293.228C566.439 293.228 565.665 292.465 565.665 291.506Z" fill="white"/>
<path d="M554.023 301.803C554.023 300.763 554.867 299.931 555.896 299.931C556.936 299.931 557.769 300.775 557.769 301.803C557.769 302.832 556.925 303.676 555.896 303.676C554.867 303.676 554.023 302.832 554.023 301.803Z" fill="white"/>
<path d="M542.382 311.985C542.382 310.864 543.295 309.951 544.416 309.951C545.538 309.951 546.451 310.864 546.451 311.985C546.451 313.107 545.538 314.02 544.416 314.02C543.295 314.02 542.382 313.107 542.382 311.985Z" fill="white"/>
<path d="M530.729 321.752C530.729 320.527 531.723 319.544 532.937 319.544C534.15 319.544 535.145 320.538 535.145 321.752C535.145 322.977 534.15 323.959 532.937 323.959C531.723 323.959 530.729 322.977 530.729 321.752Z" fill="white"/>
<path d="M602.126 242.524C602.126 241.946 602.589 241.484 603.167 241.484C603.745 241.484 604.207 241.946 604.207 242.524C604.207 243.102 603.745 243.564 603.167 243.564C602.589 243.564 602.126 243.09 602.126 242.524Z" fill="white"/>
<path d="M590.508 249.054C590.508 248.407 591.028 247.887 591.676 247.887C592.323 247.887 592.843 248.407 592.843 249.054C592.843 249.701 592.323 250.221 591.676 250.221C591.028 250.221 590.508 249.701 590.508 249.054Z" fill="white"/>
<path d="M578.89 256.278C578.89 255.561 579.468 254.983 580.184 254.983C580.901 254.983 581.479 255.561 581.479 256.278C581.479 256.994 580.901 257.572 580.184 257.572C579.468 257.572 578.89 256.994 578.89 256.278Z" fill="white"/>
<path d="M567.271 264.241C567.271 263.444 567.919 262.808 568.705 262.808C569.503 262.808 570.138 263.455 570.138 264.241C570.138 265.038 569.491 265.674 568.705 265.674C567.907 265.674 567.271 265.027 567.271 264.241Z" fill="white"/>
<path d="M555.641 272.979C555.641 272.112 556.346 271.407 557.213 271.407C558.08 271.407 558.786 272.112 558.786 272.979C558.786 273.845 558.08 274.55 557.213 274.55C556.346 274.55 555.641 273.845 555.641 272.979Z" fill="white"/>
<path d="M544.011 282.514C544.011 281.566 544.786 280.792 545.734 280.792C546.682 280.792 547.457 281.566 547.457 282.514C547.457 283.461 546.682 284.236 545.734 284.236C544.786 284.236 544.011 283.461 544.011 282.514Z" fill="white"/>
<path d="M532.37 292.777C532.37 291.737 533.214 290.904 534.243 290.904C535.283 290.904 536.115 291.748 536.115 292.777C536.115 293.817 535.272 294.649 534.243 294.649C533.214 294.649 532.37 293.817 532.37 292.777Z" fill="white"/>
<path d="M520.729 303.618C520.729 302.497 521.642 301.584 522.763 301.584C523.885 301.584 524.798 302.497 524.798 303.618C524.798 304.739 523.885 305.652 522.763 305.652C521.642 305.652 520.729 304.739 520.729 303.618Z" fill="white"/>
<path d="M509.076 314.702C509.076 313.477 510.07 312.494 511.284 312.494C512.509 312.494 513.492 313.488 513.492 314.702C513.492 315.927 512.498 316.909 511.284 316.909C510.07 316.909 509.076 315.915 509.076 314.702Z" fill="white"/>
<path d="M580.485 240.455C580.485 239.877 580.947 239.415 581.525 239.415C582.103 239.415 582.566 239.877 582.566 240.455C582.566 241.033 582.103 241.495 581.525 241.495C580.947 241.495 580.485 241.022 580.485 240.455Z" fill="white"/>
<path d="M568.866 245.656C568.866 245.009 569.387 244.489 570.034 244.489C570.681 244.489 571.202 245.009 571.202 245.656C571.202 246.303 570.681 246.823 570.034 246.823C569.387 246.823 568.866 246.303 568.866 245.656Z" fill="white"/>
<path d="M557.248 251.735C557.248 251.019 557.826 250.441 558.543 250.441C559.26 250.441 559.838 251.019 559.838 251.735C559.838 252.452 559.26 253.03 558.543 253.03C557.826 253.03 557.248 252.452 557.248 251.735Z" fill="white"/>
<path d="M545.618 258.751C545.618 257.954 546.266 257.318 547.052 257.318C547.849 257.318 548.485 257.965 548.485 258.751C548.485 259.549 547.838 260.184 547.052 260.184C546.266 260.184 545.618 259.537 545.618 258.751Z" fill="white"/>
<path d="M533.989 266.783C533.989 265.917 534.694 265.212 535.561 265.212C536.428 265.212 537.133 265.917 537.133 266.783C537.133 267.65 536.428 268.355 535.561 268.355C534.694 268.355 533.989 267.65 533.989 266.783Z" fill="white"/>
<path d="M522.358 275.868C522.358 274.92 523.133 274.146 524.081 274.146C525.029 274.146 525.803 274.92 525.803 275.868C525.803 276.816 525.029 277.59 524.081 277.59C523.133 277.59 522.358 276.816 522.358 275.868Z" fill="white"/>
<path d="M510.729 285.992C510.729 284.952 511.573 284.12 512.602 284.12C513.642 284.12 514.475 284.964 514.475 285.992C514.475 287.021 513.631 287.865 512.602 287.865C511.561 287.865 510.729 287.021 510.729 285.992Z" fill="white"/>
<path d="M499.076 297.018C499.076 295.897 499.989 294.984 501.11 294.984C502.232 294.984 503.145 295.897 503.145 297.018C503.145 298.139 502.232 299.052 501.11 299.052C499.989 299.052 499.076 298.139 499.076 297.018Z" fill="white"/>
<path d="M487.434 308.622C487.434 307.397 488.428 306.415 489.642 306.415C490.867 306.415 491.85 307.409 491.85 308.622C491.85 309.847 490.856 310.83 489.642 310.83C488.417 310.83 487.434 309.847 487.434 308.622Z" fill="white"/>
<path d="M475.77 320.203C475.77 318.886 476.833 317.822 478.151 317.822C479.469 317.822 480.533 318.886 480.533 320.203C480.533 321.521 479.469 322.584 478.151 322.584C476.833 322.584 475.77 321.521 475.77 320.203Z" fill="white"/>
<path d="M558.844 236.445C558.844 235.867 559.306 235.405 559.884 235.405C560.462 235.405 560.925 235.867 560.925 236.445C560.925 237.023 560.462 237.485 559.884 237.485C559.306 237.473 558.844 237.011 558.844 236.445Z" fill="white"/>
<path d="M547.225 241.808C547.225 241.16 547.746 240.64 548.393 240.64C549.04 240.64 549.561 241.16 549.561 241.808C549.561 242.455 549.04 242.975 548.393 242.975C547.746 242.975 547.225 242.455 547.225 241.808Z" fill="white"/>
<path d="M535.595 247.968C535.595 247.251 536.173 246.673 536.89 246.673C537.607 246.673 538.185 247.251 538.185 247.968C538.185 248.684 537.607 249.262 536.89 249.262C536.185 249.262 535.595 248.684 535.595 247.968Z" fill="white"/>
<path d="M523.977 254.983C523.977 254.186 524.625 253.55 525.411 253.55C526.209 253.55 526.844 254.197 526.844 254.983C526.844 255.769 526.197 256.416 525.411 256.416C524.613 256.416 523.977 255.769 523.977 254.983Z" fill="white"/>
<path d="M512.347 262.912C512.347 262.045 513.052 261.34 513.919 261.34C514.786 261.34 515.492 262.045 515.492 262.912C515.492 263.779 514.786 264.484 513.919 264.484C513.052 264.484 512.347 263.779 512.347 262.912Z" fill="white"/>
<path d="M500.717 271.811C500.717 270.863 501.492 270.089 502.44 270.089C503.388 270.089 504.162 270.863 504.162 271.811C504.162 272.759 503.388 273.533 502.44 273.533C501.492 273.533 500.717 272.77 500.717 271.811Z" fill="white"/>
<path d="M489.076 281.681C489.076 280.641 489.92 279.809 490.949 279.809C491.989 279.809 492.822 280.653 492.822 281.681C492.822 282.71 491.978 283.554 490.949 283.554C489.92 283.554 489.076 282.71 489.076 281.681Z" fill="white"/>
<path d="M477.434 292.384C477.434 291.263 478.348 290.35 479.469 290.35C480.59 290.35 481.504 291.263 481.504 292.384C481.504 293.505 480.59 294.418 479.469 294.418C478.348 294.418 477.434 293.505 477.434 292.384Z" fill="white"/>
<path d="M465.781 303.641C465.781 302.416 466.775 301.433 467.989 301.433C469.215 301.433 470.197 302.427 470.197 303.641C470.197 304.866 469.203 305.849 467.989 305.849C466.775 305.849 465.781 304.866 465.781 303.641Z" fill="white"/>
<path d="M454.117 314.933C454.117 313.615 455.181 312.552 456.498 312.552C457.816 312.552 458.88 313.615 458.88 314.933C458.88 316.25 457.816 317.314 456.498 317.314C455.181 317.314 454.117 316.25 454.117 314.933Z" fill="white"/>
<path d="M537.191 230.365C537.191 229.787 537.653 229.325 538.231 229.325C538.809 229.325 539.272 229.787 539.272 230.365C539.272 230.943 538.809 231.405 538.231 231.405C537.653 231.405 537.191 230.943 537.191 230.365Z" fill="white"/>
<path d="M525.573 237.439C525.573 236.791 526.093 236.271 526.74 236.271C527.388 236.271 527.908 236.791 527.908 237.439C527.908 238.086 527.388 238.606 526.74 238.606C526.093 238.594 525.573 238.074 525.573 237.439Z" fill="white"/>
<path d="M513.954 244.939C513.954 244.223 514.532 243.645 515.249 243.645C515.966 243.645 516.544 244.223 516.544 244.939C516.544 245.656 515.966 246.234 515.249 246.234C514.544 246.234 513.954 245.656 513.954 244.939Z" fill="white"/>
<path d="M502.336 252.914C502.336 252.117 502.983 251.481 503.769 251.481C504.567 251.481 505.203 252.129 505.203 252.914C505.203 253.712 504.556 254.348 503.769 254.348C502.972 254.348 502.336 253.7 502.336 252.914Z" fill="white"/>
<path d="M490.706 261.398C490.706 260.531 491.411 259.826 492.278 259.826C493.145 259.826 493.85 260.531 493.85 261.398C493.85 262.265 493.145 262.97 492.278 262.97C491.411 262.97 490.706 262.265 490.706 261.398Z" fill="white"/>
<path d="M479.076 270.389C479.076 269.442 479.85 268.667 480.798 268.667C481.746 268.667 482.521 269.442 482.521 270.389C482.521 271.337 481.746 272.112 480.798 272.112C479.85 272.112 479.076 271.337 479.076 270.389Z" fill="white"/>
<path d="M467.435 279.867C467.435 278.827 468.278 277.994 469.307 277.994C470.348 277.994 471.18 278.838 471.18 279.867C471.18 280.895 470.336 281.739 469.307 281.739C468.278 281.739 467.435 280.895 467.435 279.867Z" fill="white"/>
<path d="M455.793 289.737C455.793 288.616 456.707 287.703 457.828 287.703C458.949 287.703 459.863 288.616 459.863 289.737C459.863 290.858 458.949 291.771 457.828 291.771C456.707 291.771 455.793 290.858 455.793 289.737Z" fill="white"/>
<path d="M444.14 299.792C444.14 298.567 445.134 297.585 446.348 297.585C447.562 297.585 448.556 298.579 448.556 299.792C448.556 301.017 447.562 302 446.348 302C445.134 302 444.14 301.017 444.14 299.792Z" fill="white"/>
<path d="M432.475 309.698C432.475 308.38 433.539 307.317 434.857 307.317C436.175 307.317 437.238 308.38 437.238 309.698C437.238 311.015 436.175 312.078 434.857 312.078C433.539 312.078 432.475 311.027 432.475 309.698Z" fill="white"/>
<path d="M420.811 319.001C420.811 317.579 421.967 316.424 423.389 316.424C424.811 316.424 425.967 317.579 425.967 319.001C425.967 320.423 424.811 321.578 423.389 321.578C421.967 321.578 420.811 320.423 420.811 319.001Z" fill="white"/>
<path d="M515.538 222.529C515.538 221.952 516 221.489 516.578 221.489C517.156 221.489 517.619 221.952 517.619 222.529C517.619 223.107 517.156 223.57 516.578 223.57C516 223.57 515.538 223.107 515.538 222.529Z" fill="white"/>
<path d="M503.931 232.504C503.931 231.856 504.451 231.336 505.099 231.336C505.746 231.336 506.266 231.856 506.266 232.504C506.266 233.151 505.746 233.671 505.099 233.671C504.451 233.671 503.931 233.151 503.931 232.504Z" fill="white"/>
<path d="M492.313 242.362C492.313 241.646 492.891 241.068 493.608 241.068C494.324 241.068 494.902 241.646 494.902 242.362C494.902 243.079 494.324 243.657 493.608 243.657C492.891 243.657 492.313 243.079 492.313 242.362Z" fill="white"/>
<path d="M480.694 252.082C480.694 251.285 481.342 250.649 482.128 250.649C482.926 250.649 483.562 251.296 483.562 252.082C483.562 252.88 482.914 253.515 482.128 253.515C481.342 253.515 480.694 252.868 480.694 252.082Z" fill="white"/>
<path d="M469.065 261.617C469.065 260.75 469.77 260.045 470.637 260.045C471.504 260.045 472.209 260.75 472.209 261.617C472.209 262.484 471.504 263.189 470.637 263.189C469.77 263.201 469.065 262.496 469.065 261.617Z" fill="white"/>
<path d="M457.435 270.944C457.435 269.997 458.209 269.222 459.157 269.222C460.105 269.222 460.88 269.997 460.88 270.944C460.88 271.892 460.105 272.666 459.157 272.666C458.209 272.666 457.435 271.892 457.435 270.944Z" fill="white"/>
<path d="M445.805 279.971C445.805 278.931 446.649 278.098 447.677 278.098C448.718 278.098 449.55 278.942 449.55 279.971C449.55 280.999 448.706 281.843 447.677 281.843C446.637 281.843 445.805 280.999 445.805 279.971Z" fill="white"/>
<path d="M434.152 288.627C434.152 287.506 435.065 286.593 436.186 286.593C437.308 286.593 438.221 287.506 438.221 288.627C438.221 289.748 437.308 290.662 436.186 290.662C435.065 290.662 434.152 289.76 434.152 288.627Z" fill="white"/>
<path d="M422.498 296.857C422.498 295.631 423.493 294.649 424.707 294.649C425.932 294.649 426.915 295.643 426.915 296.857C426.915 298.082 425.92 299.064 424.707 299.064C423.481 299.064 422.498 298.07 422.498 296.857Z" fill="white"/>
<path d="M410.834 304.577C410.834 303.26 411.898 302.196 413.216 302.196C414.533 302.196 415.597 303.26 415.597 304.577C415.597 305.895 414.533 306.958 413.216 306.958C411.898 306.958 410.834 305.895 410.834 304.577Z" fill="white"/>
<path d="M399.158 311.778C399.158 310.356 400.314 309.2 401.736 309.2C403.158 309.2 404.314 310.356 404.314 311.778C404.314 313.199 403.158 314.355 401.736 314.355C400.302 314.355 399.158 313.199 399.158 311.778Z" fill="white"/>
<path d="M387.486 318.62C387.486 317.094 388.723 315.857 390.249 315.857C391.775 315.857 393.012 317.094 393.012 318.62C393.012 320.145 391.775 321.382 390.249 321.382C388.723 321.382 387.486 320.145 387.486 318.62Z" fill="white"/>
<path d="M493.885 214.127C493.885 213.549 494.348 213.087 494.926 213.087C495.504 213.087 495.966 213.549 495.966 214.127C495.966 214.705 495.504 215.167 494.926 215.167C494.359 215.167 493.885 214.705 493.885 214.127Z" fill="white"/>
<path d="M482.278 227.152C482.278 226.505 482.799 225.985 483.446 225.985C484.093 225.985 484.614 226.505 484.614 227.152C484.614 227.8 484.093 228.32 483.446 228.32C482.799 228.32 482.278 227.8 482.278 227.152Z" fill="white"/>
<path d="M470.671 239.496C470.671 238.78 471.249 238.202 471.966 238.202C472.683 238.202 473.261 238.78 473.261 239.496C473.261 240.213 472.683 240.791 471.966 240.791C471.249 240.791 470.671 240.213 470.671 239.496Z" fill="white"/>
<path d="M459.053 251.065C459.053 250.268 459.7 249.632 460.486 249.632C461.284 249.632 461.92 250.279 461.92 251.065C461.92 251.851 461.272 252.498 460.486 252.498C459.7 252.498 459.053 251.863 459.053 251.065Z" fill="white"/>
<path d="M447.435 261.756C447.435 260.889 448.14 260.184 449.007 260.184C449.874 260.184 450.579 260.889 450.579 261.756C450.579 262.623 449.874 263.328 449.007 263.328C448.14 263.328 447.435 262.634 447.435 261.756Z" fill="white"/>
<path d="M435.805 271.465C435.805 270.517 436.579 269.743 437.527 269.743C438.475 269.743 439.25 270.517 439.25 271.465C439.25 272.412 438.475 273.187 437.527 273.187C436.579 273.187 435.805 272.424 435.805 271.465Z" fill="white"/>
<path d="M424.164 280.098C424.164 279.058 425.008 278.226 426.036 278.226C427.077 278.226 427.909 279.07 427.909 280.098C427.909 281.127 427.065 281.971 426.036 281.971C424.996 281.971 424.164 281.138 424.164 280.098Z" fill="white"/>
<path d="M412.51 287.61C412.51 286.489 413.423 285.576 414.545 285.576C415.666 285.576 416.579 286.489 416.579 287.61C416.579 288.731 415.666 289.645 414.545 289.645C413.423 289.645 412.51 288.731 412.51 287.61Z" fill="white"/>
<path d="M400.857 294.048C400.857 292.823 401.852 291.84 403.065 291.84C404.279 291.84 405.274 292.834 405.274 294.048C405.274 295.273 404.279 296.255 403.065 296.255C401.852 296.255 400.857 295.273 400.857 294.048Z" fill="white"/>
<path d="M389.185 299.677C389.185 298.359 390.249 297.296 391.567 297.296C392.884 297.296 393.948 298.359 393.948 299.677C393.948 300.994 392.884 302.058 391.567 302.058C390.249 302.058 389.185 300.994 389.185 299.677Z" fill="white"/>
<path d="M377.509 304.924C377.509 303.502 378.665 302.346 380.087 302.346C381.509 302.346 382.665 303.502 382.665 304.924C382.665 306.345 381.509 307.501 380.087 307.501C378.665 307.501 377.509 306.345 377.509 304.924Z" fill="white"/>
<path d="M365.833 310.414C365.833 308.888 367.07 307.651 368.596 307.651C370.122 307.651 371.359 308.888 371.359 310.414C371.359 311.939 370.122 313.176 368.596 313.176C367.07 313.176 365.833 311.939 365.833 310.414Z" fill="white"/>
<path d="M354.157 316.643C354.157 315.014 355.475 313.696 357.105 313.696C358.735 313.696 360.052 315.014 360.052 316.643C360.052 318.273 358.735 319.59 357.105 319.59C355.475 319.59 354.157 318.273 354.157 316.643Z" fill="white"/>
<path d="M472.244 206.707C472.244 206.129 472.706 205.667 473.284 205.667C473.862 205.667 474.325 206.129 474.325 206.707C474.325 207.285 473.862 207.747 473.284 207.747C472.706 207.747 472.244 207.285 472.244 206.707Z" fill="white"/>
<path d="M460.637 221.744C460.637 221.096 461.157 220.576 461.804 220.576C462.452 220.576 462.972 221.096 462.972 221.744C462.972 222.391 462.452 222.911 461.804 222.911C461.157 222.911 460.637 222.391 460.637 221.744Z" fill="white"/>
<path d="M449.03 235.705C449.03 234.988 449.608 234.41 450.325 234.41C451.041 234.41 451.619 234.988 451.619 235.705C451.619 236.421 451.041 236.999 450.325 236.999C449.608 237.011 449.03 236.421 449.03 235.705Z" fill="white"/>
<path d="M437.412 248.476C437.412 247.679 438.059 247.043 438.845 247.043C439.631 247.043 440.279 247.69 440.279 248.476C440.279 249.262 439.631 249.909 438.845 249.909C438.059 249.909 437.412 249.262 437.412 248.476Z" fill="white"/>
<path d="M425.793 259.907C425.793 259.04 426.498 258.335 427.365 258.335C428.233 258.335 428.938 259.04 428.938 259.907C428.938 260.774 428.233 261.479 427.365 261.479C426.498 261.479 425.793 260.774 425.793 259.907Z" fill="white"/>
<path d="M414.164 269.858C414.164 268.91 414.938 268.136 415.886 268.136C416.834 268.136 417.609 268.91 417.609 269.858C417.609 270.805 416.834 271.58 415.886 271.58C414.938 271.58 414.164 270.805 414.164 269.858Z" fill="white"/>
<path d="M402.522 278.237C402.522 277.197 403.366 276.365 404.395 276.365C405.435 276.365 406.268 277.208 406.268 278.237C406.268 279.266 405.424 280.109 404.395 280.109C403.354 280.121 402.522 279.277 402.522 278.237Z" fill="white"/>
<path d="M390.873 285.045C390.873 283.924 391.786 283.011 392.908 283.011C394.029 283.011 394.942 283.924 394.942 285.045C394.942 286.166 394.029 287.079 392.908 287.079C391.786 287.079 390.873 286.177 390.873 285.045Z" fill="white"/>
<path d="M379.208 290.465C379.208 289.24 380.203 288.258 381.417 288.258C382.642 288.258 383.625 289.252 383.625 290.465C383.625 291.69 382.63 292.673 381.417 292.673C380.203 292.673 379.208 291.679 379.208 290.465Z" fill="white"/>
<path d="M367.544 294.973C367.544 293.655 368.607 292.592 369.925 292.592C371.243 292.592 372.307 293.655 372.307 294.973C372.307 296.29 371.243 297.354 369.925 297.354C368.607 297.354 367.544 296.29 367.544 294.973Z" fill="white"/>
<path d="M355.867 299.376C355.867 297.955 357.023 296.799 358.445 296.799C359.867 296.799 361.023 297.955 361.023 299.376C361.023 300.798 359.867 301.954 358.445 301.954C357.012 301.942 355.867 300.798 355.867 299.376Z" fill="white"/>
<path d="M344.18 304.531C344.18 303.005 345.417 301.769 346.943 301.769C348.469 301.769 349.706 303.005 349.706 304.531C349.706 306.057 348.469 307.293 346.943 307.293C345.417 307.293 344.18 306.057 344.18 304.531Z" fill="white"/>
<path d="M332.504 310.76C332.504 309.131 333.822 307.813 335.452 307.813C337.082 307.813 338.4 309.131 338.4 310.76C338.4 312.39 337.082 313.708 335.452 313.708C333.833 313.708 332.504 312.379 332.504 310.76Z" fill="white"/>
<path d="M320.839 318.065C320.839 316.331 322.238 314.933 323.972 314.933C325.706 314.933 327.105 316.331 327.105 318.065C327.105 319.799 325.706 321.197 323.972 321.197C322.238 321.197 320.839 319.787 320.839 318.065Z" fill="white"/>
<path d="M450.591 200.951C450.591 200.373 451.053 199.911 451.631 199.911C452.209 199.911 452.672 200.373 452.672 200.951C452.672 201.529 452.209 201.991 451.631 201.991C451.053 201.991 450.591 201.529 450.591 200.951Z" fill="white"/>
<path d="M438.984 216.739C438.984 216.092 439.504 215.572 440.151 215.572C440.799 215.572 441.319 216.092 441.319 216.739C441.319 217.386 440.799 217.906 440.151 217.906C439.504 217.906 438.984 217.386 438.984 216.739Z" fill="white"/>
<path d="M427.377 231.29C427.377 230.573 427.955 229.996 428.672 229.996C429.389 229.996 429.967 230.573 429.967 231.29C429.967 232.007 429.389 232.584 428.672 232.584C427.967 232.584 427.377 232.007 427.377 231.29Z" fill="white"/>
<path d="M415.771 244.443C415.771 243.645 416.418 243.01 417.204 243.01C418.002 243.01 418.638 243.657 418.638 244.443C418.638 245.24 417.99 245.876 417.204 245.876C416.407 245.876 415.771 245.229 415.771 244.443Z" fill="white"/>
<path d="M404.14 256.058C404.14 255.191 404.846 254.486 405.713 254.486C406.58 254.486 407.285 255.191 407.285 256.058C407.285 256.925 406.58 257.63 405.713 257.63C404.846 257.63 404.14 256.925 404.14 256.058Z" fill="white"/>
<path d="M392.515 265.998C392.515 265.05 393.289 264.276 394.237 264.276C395.185 264.276 395.96 265.05 395.96 265.998C395.96 266.945 395.185 267.72 394.237 267.72C393.289 267.72 392.515 266.945 392.515 265.998Z" fill="white"/>
<path d="M380.873 274.192C380.873 273.152 381.717 272.32 382.746 272.32C383.786 272.32 384.618 273.164 384.618 274.192C384.618 275.221 383.775 276.065 382.746 276.065C381.717 276.065 380.873 275.232 380.873 274.192Z" fill="white"/>
<path d="M369.232 280.687C369.232 279.566 370.145 278.653 371.266 278.653C372.388 278.653 373.301 279.566 373.301 280.687C373.301 281.809 372.388 282.722 371.266 282.722C370.145 282.722 369.232 281.809 369.232 280.687Z" fill="white"/>
<path d="M357.567 285.773C357.567 284.548 358.561 283.565 359.775 283.565C360.989 283.565 361.983 284.559 361.983 285.773C361.983 286.998 360.989 287.98 359.775 287.98C358.561 287.98 357.567 286.986 357.567 285.773Z" fill="white"/>
<path d="M345.891 290.072C345.891 288.755 346.954 287.691 348.272 287.691C349.59 287.691 350.654 288.755 350.654 290.072C350.654 291.39 349.59 292.453 348.272 292.453C346.966 292.465 345.891 291.401 345.891 290.072Z" fill="white"/>
<path d="M334.215 294.626C334.215 293.205 335.371 292.049 336.793 292.049C338.215 292.049 339.371 293.205 339.371 294.626C339.371 296.048 338.215 297.204 336.793 297.204C335.371 297.192 334.215 296.048 334.215 294.626Z" fill="white"/>
<path d="M322.538 300.37C322.538 298.845 323.775 297.608 325.301 297.608C326.827 297.608 328.064 298.845 328.064 300.37C328.064 301.896 326.827 303.132 325.301 303.132C323.775 303.132 322.538 301.896 322.538 300.37Z" fill="white"/>
<path d="M310.862 307.259C310.862 305.629 312.18 304.312 313.81 304.312C315.44 304.312 316.758 305.629 316.758 307.259C316.758 308.888 315.44 310.206 313.81 310.206C312.18 310.206 310.862 308.888 310.862 307.259Z" fill="white"/>
<path d="M299.198 314.944C299.198 313.211 300.597 311.812 302.331 311.812C304.065 311.812 305.464 313.211 305.464 314.944C305.464 316.678 304.065 318.076 302.331 318.076C300.597 318.076 299.198 316.666 299.198 314.944Z" fill="white"/>
<path d="M287.533 323.081C287.533 321.255 289.013 319.776 290.84 319.776C292.666 319.776 294.146 321.255 294.146 323.081C294.146 324.907 292.666 326.387 290.84 326.387C289.013 326.387 287.533 324.907 287.533 323.081Z" fill="white"/>
<path d="M428.949 197.322C428.949 196.744 429.412 196.282 429.99 196.282C430.568 196.282 431.03 196.744 431.03 197.322C431.03 197.9 430.568 198.362 429.99 198.362C429.412 198.362 428.949 197.9 428.949 197.322Z" fill="white"/>
<path d="M417.343 212.682C417.343 212.035 417.863 211.515 418.511 211.515C419.158 211.515 419.678 212.035 419.678 212.682C419.678 213.329 419.158 213.849 418.511 213.849C417.863 213.849 417.343 213.329 417.343 212.682Z" fill="white"/>
<path d="M405.736 226.806C405.736 226.089 406.314 225.511 407.031 225.511C407.747 225.511 408.325 226.089 408.325 226.806C408.325 227.522 407.747 228.1 407.031 228.1C406.314 228.1 405.736 227.522 405.736 226.806Z" fill="white"/>
<path d="M394.117 239.542C394.117 238.744 394.765 238.109 395.551 238.109C396.337 238.109 396.984 238.756 396.984 239.542C396.984 240.328 396.337 240.975 395.551 240.975C394.765 240.975 394.117 240.328 394.117 239.542Z" fill="white"/>
<path d="M382.503 250.753C382.503 249.886 383.208 249.181 384.075 249.181C384.942 249.181 385.648 249.886 385.648 250.753C385.648 251.62 384.942 252.325 384.075 252.325C383.208 252.325 382.503 251.631 382.503 250.753Z" fill="white"/>
<path d="M370.873 260.357C370.873 259.41 371.648 258.635 372.596 258.635C373.544 258.635 374.318 259.41 374.318 260.357C374.318 261.305 373.544 262.08 372.596 262.08C371.648 262.08 370.873 261.305 370.873 260.357Z" fill="white"/>
<path d="M359.232 268.286C359.232 267.246 360.076 266.414 361.105 266.414C362.145 266.414 362.977 267.257 362.977 268.286C362.977 269.315 362.134 270.158 361.105 270.158C360.076 270.158 359.232 269.326 359.232 268.286Z" fill="white"/>
<path d="M347.579 274.654C347.579 273.533 348.492 272.62 349.613 272.62C350.735 272.62 351.648 273.533 351.648 274.654C351.648 275.776 350.735 276.689 349.613 276.689C348.492 276.689 347.579 275.787 347.579 274.654Z" fill="white"/>
<path d="M335.914 279.832C335.914 278.607 336.908 277.625 338.122 277.625C339.347 277.625 340.33 278.619 340.33 279.832C340.33 281.057 339.336 282.04 338.122 282.04C336.908 282.04 335.914 281.046 335.914 279.832Z" fill="white"/>
<path d="M324.249 284.513C324.249 283.196 325.313 282.132 326.631 282.132C327.949 282.132 329.012 283.196 329.012 284.513C329.012 285.831 327.949 286.894 326.631 286.894C325.313 286.894 324.249 285.831 324.249 284.513Z" fill="white"/>
<path d="M312.573 289.795C312.573 288.373 313.729 287.218 315.151 287.218C316.573 287.218 317.729 288.373 317.729 289.795C317.729 291.216 316.573 292.372 315.151 292.372C313.718 292.361 312.573 291.216 312.573 289.795Z" fill="white"/>
<path d="M300.897 296.591C300.897 295.065 302.134 293.828 303.66 293.828C305.186 293.828 306.423 295.065 306.423 296.591C306.423 298.116 305.186 299.353 303.66 299.353C302.134 299.353 300.897 298.116 300.897 296.591Z" fill="white"/>
<path d="M289.221 304.496C289.221 302.867 290.539 301.549 292.169 301.549C293.799 301.549 295.117 302.867 295.117 304.496C295.117 306.126 293.799 307.443 292.169 307.443C290.539 307.443 289.221 306.114 289.221 304.496Z" fill="white"/>
<path d="M277.545 312.772C277.545 311.038 278.944 309.639 280.678 309.639C282.412 309.639 283.811 311.038 283.811 312.772C283.811 314.505 282.412 315.904 280.678 315.904C278.944 315.904 277.545 314.505 277.545 312.772Z" fill="white"/>
<path d="M265.892 320.885C265.892 319.059 267.372 317.579 269.198 317.579C271.025 317.579 272.505 319.059 272.505 320.885C272.505 322.711 271.025 324.19 269.198 324.19C267.372 324.19 265.892 322.711 265.892 320.885Z" fill="white"/>
<path d="M407.308 195.924C407.308 195.346 407.77 194.883 408.348 194.883C408.926 194.883 409.389 195.346 409.389 195.924C409.389 196.501 408.926 196.964 408.348 196.964C407.77 196.964 407.308 196.501 407.308 195.924Z" fill="white"/>
<path d="M395.701 209.954C395.701 209.307 396.221 208.787 396.869 208.787C397.516 208.787 398.036 209.307 398.036 209.954C398.036 210.602 397.516 211.122 396.869 211.122C396.221 211.122 395.701 210.59 395.701 209.954Z" fill="white"/>
<path d="M384.098 222.841C384.098 222.125 384.676 221.547 385.393 221.547C386.11 221.547 386.688 222.125 386.688 222.841C386.688 223.558 386.11 224.136 385.393 224.136C384.676 224.136 384.098 223.558 384.098 222.841Z" fill="white"/>
<path d="M372.48 234.491C372.48 233.694 373.127 233.058 373.914 233.058C374.7 233.058 375.347 233.706 375.347 234.491C375.347 235.289 374.7 235.925 373.914 235.925C373.127 235.925 372.48 235.277 372.48 234.491Z" fill="white"/>
<path d="M360.85 244.801C360.85 243.934 361.555 243.229 362.423 243.229C363.29 243.229 363.995 243.934 363.995 244.801C363.995 245.668 363.29 246.373 362.423 246.373C361.555 246.373 360.85 245.668 360.85 244.801Z" fill="white"/>
<path d="M349.221 253.689C349.221 252.741 349.995 251.966 350.943 251.966C351.891 251.966 352.666 252.741 352.666 253.689C352.666 254.636 351.891 255.411 350.943 255.411C349.995 255.411 349.221 254.636 349.221 253.689Z" fill="white"/>
<path d="M337.579 261.155C337.579 260.115 338.423 259.283 339.452 259.283C340.492 259.283 341.324 260.126 341.324 261.155C341.324 262.195 340.481 263.027 339.452 263.027C338.423 263.039 337.579 262.195 337.579 261.155Z" fill="white"/>
<path d="M325.926 267.361C325.926 266.24 326.839 265.327 327.961 265.327C329.082 265.327 329.995 266.24 329.995 267.361C329.995 268.483 329.082 269.396 327.961 269.396C326.839 269.396 325.926 268.494 325.926 267.361Z" fill="white"/>
<path d="M314.273 272.701C314.273 271.476 315.267 270.494 316.481 270.494C317.706 270.494 318.689 271.487 318.689 272.701C318.689 273.926 317.695 274.909 316.481 274.909C315.255 274.909 314.273 273.926 314.273 272.701Z" fill="white"/>
<path d="M302.597 277.902C302.597 276.585 303.66 275.522 304.978 275.522C306.296 275.522 307.36 276.585 307.36 277.902C307.36 279.22 306.296 280.283 304.978 280.283C303.66 280.283 302.597 279.22 302.597 277.902Z" fill="white"/>
<path d="M290.92 284.005C290.92 282.583 292.076 281.427 293.498 281.427C294.92 281.427 296.076 282.583 296.076 284.005C296.076 285.426 294.92 286.582 293.498 286.582C292.076 286.582 290.92 285.426 290.92 284.005Z" fill="white"/>
<path d="M279.245 291.829C279.245 290.304 280.482 289.067 282.008 289.067C283.533 289.067 284.77 290.304 284.77 291.829C284.77 293.355 283.533 294.592 282.008 294.592C280.482 294.592 279.245 293.355 279.245 291.829Z" fill="white"/>
<path d="M267.58 300.67C267.58 299.041 268.898 297.723 270.528 297.723C272.158 297.723 273.476 299.041 273.476 300.67C273.476 302.3 272.158 303.618 270.528 303.618C268.898 303.629 267.58 302.3 267.58 300.67Z" fill="white"/>
<path d="M255.904 309.582C255.904 307.848 257.303 306.45 259.037 306.45C260.771 306.45 262.169 307.848 262.169 309.582C262.169 311.315 260.771 312.714 259.037 312.714C257.303 312.714 255.904 311.304 255.904 309.582Z" fill="white"/>
<path d="M244.239 317.834C244.239 316.008 245.719 314.528 247.545 314.528C249.372 314.528 250.852 316.008 250.852 317.834C250.852 319.66 249.372 321.139 247.545 321.139C245.73 321.139 244.239 319.66 244.239 317.834Z" fill="white"/>
<path d="M385.671 196.316C385.671 195.739 386.133 195.276 386.711 195.276C387.289 195.276 387.752 195.739 387.752 196.316C387.752 196.894 387.289 197.357 386.711 197.357C386.133 197.345 385.671 196.883 385.671 196.316Z" fill="white"/>
<path d="M374.064 208.464C374.064 207.816 374.584 207.296 375.231 207.296C375.879 207.296 376.399 207.816 376.399 208.464C376.399 209.111 375.879 209.631 375.231 209.631C374.584 209.631 374.064 209.111 374.064 208.464Z" fill="white"/>
<path d="M362.445 219.663C362.445 218.946 363.023 218.369 363.74 218.369C364.457 218.369 365.035 218.946 365.035 219.663C365.035 220.38 364.457 220.957 363.74 220.957C363.035 220.957 362.445 220.38 362.445 219.663Z" fill="white"/>
<path d="M350.827 229.822C350.827 229.024 351.475 228.389 352.261 228.389C353.047 228.389 353.694 229.036 353.694 229.822C353.694 230.608 353.047 231.255 352.261 231.255C351.475 231.255 350.827 230.608 350.827 229.822Z" fill="white"/>
<path d="M339.209 238.849C339.209 237.982 339.914 237.277 340.781 237.277C341.648 237.277 342.353 237.982 342.353 238.849C342.353 239.716 341.648 240.421 340.781 240.421C339.914 240.432 339.209 239.727 339.209 238.849Z" fill="white"/>
<path d="M327.567 246.743C327.567 245.795 328.342 245.021 329.29 245.021C330.238 245.021 331.012 245.795 331.012 246.743C331.012 247.69 330.238 248.465 329.29 248.465C328.342 248.465 327.567 247.69 327.567 246.743Z" fill="white"/>
<path d="M315.926 253.515C315.926 252.475 316.77 251.643 317.799 251.643C318.839 251.643 319.671 252.487 319.671 253.515C319.671 254.544 318.828 255.388 317.799 255.388C316.77 255.388 315.926 254.556 315.926 253.515Z" fill="white"/>
<path d="M304.273 259.364C304.273 258.243 305.186 257.33 306.308 257.33C307.429 257.33 308.342 258.243 308.342 259.364C308.342 260.485 307.429 261.398 306.308 261.398C305.186 261.398 304.273 260.485 304.273 259.364Z" fill="white"/>
<path d="M292.62 264.668C292.62 263.443 293.614 262.461 294.828 262.461C296.053 262.461 297.036 263.455 297.036 264.668C297.036 265.894 296.042 266.876 294.828 266.876C293.602 266.876 292.62 265.894 292.62 264.668Z" fill="white"/>
<path d="M280.944 270.158C280.944 268.841 282.007 267.777 283.325 267.777C284.643 267.777 285.707 268.841 285.707 270.158C285.707 271.476 284.643 272.539 283.325 272.539C282.019 272.551 280.944 271.476 280.944 270.158Z" fill="white"/>
<path d="M269.279 276.781C269.279 275.359 270.435 274.203 271.857 274.203C273.279 274.203 274.435 275.359 274.435 276.781C274.435 278.202 273.279 279.358 271.857 279.358C270.435 279.358 269.279 278.202 269.279 276.781Z" fill="white"/>
<path d="M257.603 285.218C257.603 283.692 258.84 282.456 260.366 282.456C261.892 282.456 263.129 283.692 263.129 285.218C263.129 286.744 261.892 287.98 260.366 287.98C258.84 287.98 257.603 286.744 257.603 285.218Z" fill="white"/>
<path d="M245.927 294.649C245.927 293.019 247.245 291.702 248.875 291.702C250.505 291.702 251.823 293.019 251.823 294.649C251.823 296.279 250.505 297.596 248.875 297.596C247.245 297.596 245.927 296.279 245.927 294.649Z" fill="white"/>
<path d="M234.262 304.034C234.262 302.3 235.661 300.902 237.395 300.902C239.129 300.902 240.528 302.3 240.528 304.034C240.528 305.768 239.129 307.166 237.395 307.166C235.661 307.166 234.262 305.768 234.262 304.034Z" fill="white"/>
<path d="M222.598 312.61C222.598 310.784 224.077 309.304 225.904 309.304C227.731 309.304 229.21 310.784 229.21 312.61C229.21 314.436 227.731 315.915 225.904 315.915C224.077 315.927 222.598 314.436 222.598 312.61Z" fill="white"/>
<path d="M210.945 319.983C210.945 318.065 212.505 316.504 214.424 316.504C216.343 316.504 217.904 318.065 217.904 319.983C217.904 321.902 216.343 323.462 214.424 323.462C212.494 323.462 210.945 321.902 210.945 319.983Z" fill="white"/>
<path d="M364.029 195.623C364.029 195.045 364.492 194.583 365.07 194.583C365.648 194.583 366.11 195.045 366.11 195.623C366.11 196.201 365.648 196.663 365.07 196.663C364.492 196.663 364.029 196.201 364.029 195.623Z" fill="white"/>
<path d="M352.423 206.325C352.423 205.678 352.943 205.158 353.59 205.158C354.238 205.158 354.758 205.678 354.758 206.325C354.758 206.973 354.238 207.493 353.59 207.493C352.943 207.493 352.423 206.973 352.423 206.325Z" fill="white"/>
<path d="M340.804 216.184C340.804 215.468 341.382 214.89 342.099 214.89C342.816 214.89 343.394 215.468 343.394 216.184C343.394 216.901 342.816 217.479 342.099 217.479C341.394 217.479 340.804 216.901 340.804 216.184Z" fill="white"/>
<path d="M329.186 225.13C329.186 224.332 329.833 223.696 330.62 223.696C331.417 223.696 332.053 224.344 332.053 225.13C332.053 225.927 331.406 226.563 330.62 226.563C329.833 226.563 329.186 225.916 329.186 225.13Z" fill="white"/>
<path d="M317.556 233.116C317.556 232.249 318.261 231.544 319.128 231.544C319.996 231.544 320.701 232.249 320.701 233.116C320.701 233.983 319.996 234.688 319.128 234.688C318.261 234.688 317.556 233.983 317.556 233.116Z" fill="white"/>
<path d="M305.926 240.132C305.926 239.184 306.701 238.41 307.649 238.41C308.597 238.41 309.371 239.184 309.371 240.132C309.371 241.08 308.597 241.854 307.649 241.854C306.689 241.854 305.926 241.08 305.926 240.132Z" fill="white"/>
<path d="M294.284 246.234C294.284 245.194 295.128 244.362 296.157 244.362C297.186 244.362 298.03 245.206 298.03 246.234C298.03 247.274 297.186 248.107 296.157 248.107C295.128 248.107 294.284 247.274 294.284 246.234Z" fill="white"/>
<path d="M282.632 251.62C282.632 250.499 283.545 249.586 284.666 249.586C285.788 249.586 286.701 250.499 286.701 251.62C286.701 252.741 285.788 253.654 284.666 253.654C283.545 253.666 282.632 252.752 282.632 251.62Z" fill="white"/>
<path d="M270.967 256.705C270.967 255.48 271.961 254.497 273.175 254.497C274.401 254.497 275.383 255.491 275.383 256.705C275.383 257.919 274.389 258.913 273.175 258.913C271.95 258.913 270.967 257.93 270.967 256.705Z" fill="white"/>
<path d="M259.302 262.16C259.302 260.843 260.366 259.78 261.684 259.78C263.002 259.78 264.065 260.843 264.065 262.16C264.065 263.478 263.002 264.541 261.684 264.541C260.366 264.541 259.302 263.478 259.302 262.16Z" fill="white"/>
<path d="M247.626 268.876C247.626 267.454 248.783 266.298 250.204 266.298C251.626 266.298 252.782 267.454 252.782 268.876C252.782 270.297 251.626 271.453 250.204 271.453C248.771 271.441 247.626 270.297 247.626 268.876Z" fill="white"/>
<path d="M235.95 277.451C235.95 275.926 237.187 274.689 238.713 274.689C240.239 274.689 241.476 275.926 241.476 277.451C241.476 278.977 240.239 280.214 238.713 280.214C237.187 280.214 235.95 278.977 235.95 277.451Z" fill="white"/>
<path d="M224.274 287.125C224.274 285.495 225.592 284.178 227.222 284.178C228.852 284.178 230.17 285.495 230.17 287.125C230.17 288.755 228.852 290.072 227.222 290.072C225.592 290.072 224.274 288.743 224.274 287.125Z" fill="white"/>
<path d="M212.609 296.834C212.609 295.1 214.008 293.701 215.742 293.701C217.476 293.701 218.875 295.1 218.875 296.834C218.875 298.567 217.476 299.966 215.742 299.966C214.008 299.966 212.609 298.567 212.609 296.834Z" fill="white"/>
<path d="M200.941 305.872C200.941 304.046 202.421 302.566 204.247 302.566C206.074 302.566 207.554 304.046 207.554 305.872C207.554 307.698 206.074 309.177 204.247 309.177C202.421 309.177 200.941 307.698 200.941 305.872Z" fill="white"/>
<path d="M189.288 313.8C189.288 311.881 190.849 310.321 192.768 310.321C194.687 310.321 196.247 311.881 196.247 313.8C196.247 315.719 194.687 317.279 192.768 317.279C190.849 317.279 189.288 315.719 189.288 313.8Z" fill="white"/>
<path d="M177.635 320.469C177.635 318.458 179.265 316.828 181.277 316.828C183.288 316.828 184.918 318.458 184.918 320.469C184.918 322.48 183.288 324.11 181.277 324.11C179.265 324.11 177.635 322.48 177.635 320.469Z" fill="white"/>
<path d="M342.388 191.393C342.388 190.815 342.85 190.353 343.428 190.353C344.006 190.353 344.469 190.815 344.469 191.393C344.469 191.971 344.006 192.433 343.428 192.433C342.85 192.433 342.388 191.971 342.388 191.393Z" fill="white"/>
<path d="M330.781 201.76C330.781 201.113 331.302 200.593 331.949 200.593C332.596 200.593 333.117 201.113 333.117 201.76C333.117 202.407 332.596 202.927 331.949 202.927C331.302 202.927 330.781 202.407 330.781 201.76Z" fill="white"/>
<path d="M319.163 211.284C319.163 210.567 319.741 209.989 320.458 209.989C321.174 209.989 321.752 210.567 321.752 211.284C321.752 212 321.174 212.578 320.458 212.578C319.741 212.578 319.163 212 319.163 211.284Z" fill="white"/>
<path d="M307.545 219.871C307.545 219.074 308.192 218.438 308.978 218.438C309.776 218.438 310.412 219.085 310.412 219.871C310.412 220.657 309.764 221.304 308.978 221.304C308.18 221.304 307.545 220.669 307.545 219.871Z" fill="white"/>
<path d="M295.914 227.499C295.914 226.632 296.62 225.927 297.487 225.927C298.354 225.927 299.059 226.632 299.059 227.499C299.059 228.366 298.354 229.071 297.487 229.071C296.62 229.071 295.914 228.366 295.914 227.499Z" fill="white"/>
<path d="M284.273 234.145C284.273 233.197 285.048 232.422 285.996 232.422C286.944 232.422 287.718 233.197 287.718 234.145C287.718 235.092 286.944 235.867 285.996 235.867C285.048 235.867 284.273 235.092 284.273 234.145Z" fill="white"/>
<path d="M272.632 239.877C272.632 238.837 273.476 238.005 274.505 238.005C275.545 238.005 276.378 238.849 276.378 239.877C276.378 240.917 275.534 241.75 274.505 241.75C273.476 241.75 272.632 240.917 272.632 239.877Z" fill="white"/>
<path d="M260.979 244.905C260.979 243.784 261.892 242.871 263.013 242.871C264.135 242.871 265.048 243.784 265.048 244.905C265.048 246.026 264.135 246.939 263.013 246.939C261.892 246.939 260.979 246.026 260.979 244.905Z" fill="white"/>
<path d="M249.314 249.632C249.314 248.407 250.308 247.424 251.522 247.424C252.748 247.424 253.73 248.418 253.73 249.632C253.73 250.845 252.736 251.839 251.522 251.839C250.308 251.839 249.314 250.857 249.314 249.632Z" fill="white"/>
<path d="M237.65 254.764C237.65 253.446 238.713 252.383 240.031 252.383C241.349 252.383 242.412 253.446 242.412 254.764C242.412 256.081 241.349 257.144 240.031 257.144C238.713 257.156 237.65 256.081 237.65 254.764Z" fill="white"/>
<path d="M225.973 261.224C225.973 259.803 227.129 258.647 228.551 258.647C229.973 258.647 231.129 259.803 231.129 261.224C231.129 262.646 229.973 263.802 228.551 263.802C227.129 263.79 225.973 262.634 225.973 261.224Z" fill="white"/>
<path d="M214.297 269.627C214.297 268.101 215.534 266.864 217.06 266.864C218.586 266.864 219.823 268.101 219.823 269.627C219.823 271.152 218.586 272.389 217.06 272.389C215.534 272.389 214.297 271.152 214.297 269.627Z" fill="white"/>
<path d="M202.617 279.289C202.617 277.659 203.935 276.342 205.565 276.342C207.195 276.342 208.513 277.659 208.513 279.289C208.513 280.919 207.195 282.236 205.565 282.236C203.947 282.236 202.617 280.919 202.617 279.289Z" fill="white"/>
<path d="M190.953 289.263C190.953 287.529 192.352 286.131 194.086 286.131C195.82 286.131 197.219 287.529 197.219 289.263C197.219 290.997 195.82 292.395 194.086 292.395C192.352 292.395 190.953 290.985 190.953 289.263Z" fill="white"/>
<path d="M179.299 298.821C179.299 296.995 180.779 295.516 182.606 295.516C184.432 295.516 185.912 296.995 185.912 298.821C185.912 300.647 184.432 302.127 182.606 302.127C180.779 302.127 179.299 300.647 179.299 298.821Z" fill="white"/>
<path d="M167.635 307.559C167.635 305.64 169.196 304.08 171.115 304.08C173.034 304.08 174.595 305.64 174.595 307.559C174.595 309.477 173.034 311.038 171.115 311.038C169.196 311.038 167.635 309.477 167.635 307.559Z" fill="white"/>
<path d="M155.994 315.268C155.994 313.257 157.624 311.627 159.635 311.627C161.647 311.627 163.277 313.257 163.277 315.268C163.277 317.279 161.647 318.909 159.635 318.909C157.624 318.909 155.994 317.279 155.994 315.268Z" fill="white"/>
<path d="M144.34 321.902C144.34 319.81 146.04 318.1 148.144 318.1C150.236 318.1 151.947 319.799 151.947 321.902C151.947 324.006 150.248 325.704 148.144 325.704C146.04 325.693 144.34 323.994 144.34 321.902Z" fill="white"/>
<path d="M320.735 182.991C320.735 182.413 321.197 181.95 321.776 181.95C322.354 181.95 322.816 182.413 322.816 182.991C322.816 183.569 322.354 184.031 321.776 184.031C321.197 184.031 320.735 183.557 320.735 182.991Z" fill="white"/>
<path d="M309.128 194.329C309.128 193.682 309.649 193.161 310.296 193.161C310.943 193.161 311.464 193.682 311.464 194.329C311.464 194.976 310.943 195.496 310.296 195.496C309.649 195.496 309.128 194.964 309.128 194.329Z" fill="white"/>
<path d="M297.51 204.649C297.51 203.933 298.088 203.355 298.805 203.355C299.522 203.355 300.1 203.933 300.1 204.649C300.1 205.366 299.522 205.944 298.805 205.944C298.088 205.944 297.51 205.366 297.51 204.649Z" fill="white"/>
<path d="M285.892 213.884C285.892 213.087 286.539 212.451 287.325 212.451C288.123 212.451 288.759 213.098 288.759 213.884C288.759 214.682 288.111 215.317 287.325 215.317C286.539 215.317 285.892 214.67 285.892 213.884Z" fill="white"/>
<path d="M274.262 221.951C274.262 221.085 274.967 220.38 275.834 220.38C276.701 220.38 277.406 221.085 277.406 221.951C277.406 222.818 276.701 223.523 275.834 223.523C274.967 223.523 274.262 222.818 274.262 221.951Z" fill="white"/>
<path d="M262.632 228.84C262.632 227.892 263.406 227.118 264.354 227.118C265.302 227.118 266.077 227.892 266.077 228.84C266.077 229.788 265.302 230.562 264.354 230.562C263.395 230.551 262.632 229.788 262.632 228.84Z" fill="white"/>
<path d="M250.99 234.572C250.99 233.532 251.834 232.7 252.863 232.7C253.892 232.7 254.736 233.544 254.736 234.572C254.736 235.613 253.892 236.445 252.863 236.445C251.834 236.445 250.99 235.613 250.99 234.572Z" fill="white"/>
<path d="M239.337 239.38C239.337 238.259 240.25 237.346 241.372 237.346C242.493 237.346 243.407 238.259 243.407 239.38C243.407 240.501 242.493 241.414 241.372 241.414C240.25 241.414 239.337 240.513 239.337 239.38Z" fill="white"/>
<path d="M227.673 243.703C227.673 242.478 228.667 241.495 229.881 241.495C231.106 241.495 232.089 242.489 232.089 243.703C232.089 244.916 231.095 245.91 229.881 245.91C228.655 245.91 227.673 244.928 227.673 243.703Z" fill="white"/>
<path d="M215.997 248.314C215.997 246.997 217.06 245.933 218.378 245.933C219.696 245.933 220.76 246.997 220.76 248.314C220.76 249.632 219.696 250.695 218.378 250.695C217.072 250.695 215.997 249.632 215.997 248.314Z" fill="white"/>
<path d="M204.32 254.232C204.32 252.81 205.476 251.655 206.898 251.655C208.32 251.655 209.476 252.81 209.476 254.232C209.476 255.653 208.32 256.809 206.898 256.809C205.476 256.809 204.32 255.653 204.32 254.232Z" fill="white"/>
<path d="M192.64 262.242C192.64 260.716 193.877 259.479 195.403 259.479C196.929 259.479 198.166 260.716 198.166 262.242C198.166 263.767 196.929 265.004 195.403 265.004C193.877 265.004 192.64 263.767 192.64 262.242Z" fill="white"/>
<path d="M180.976 271.776C180.976 270.147 182.294 268.829 183.924 268.829C185.554 268.829 186.872 270.147 186.872 271.776C186.872 273.406 185.554 274.724 183.924 274.724C182.294 274.724 180.976 273.406 180.976 271.776Z" fill="white"/>
<path d="M169.311 281.97C169.311 280.237 170.71 278.838 172.444 278.838C174.178 278.838 175.577 280.237 175.577 281.97C175.577 283.704 174.178 285.103 172.444 285.103C170.71 285.103 169.311 283.693 169.311 281.97Z" fill="white"/>
<path d="M157.647 292.106C157.647 290.28 159.126 288.801 160.953 288.801C162.779 288.801 164.259 290.28 164.259 292.106C164.259 293.933 162.779 295.412 160.953 295.412C159.126 295.412 157.647 293.933 157.647 292.106Z" fill="white"/>
<path d="M145.994 301.745C145.994 299.827 147.554 298.267 149.473 298.267C151.393 298.267 152.953 299.827 152.953 301.745C152.953 303.664 151.393 305.224 149.473 305.224C147.554 305.224 145.994 303.664 145.994 301.745Z" fill="white"/>
<path d="M134.341 310.668C134.341 308.657 135.971 307.028 137.982 307.028C139.994 307.028 141.624 308.657 141.624 310.668C141.624 312.679 139.994 314.309 137.982 314.309C135.971 314.309 134.341 312.679 134.341 310.668Z" fill="white"/>
<path d="M122.699 318.782C122.699 316.69 124.398 314.979 126.503 314.979C128.607 314.979 130.306 316.678 130.306 318.782C130.306 320.885 128.607 322.584 126.503 322.584C124.398 322.584 122.699 320.874 122.699 318.782Z" fill="white"/>
<path d="M299.082 170.624C299.082 170.046 299.545 169.584 300.123 169.584C300.701 169.584 301.163 170.046 301.163 170.624C301.163 171.202 300.701 171.664 300.123 171.664C299.545 171.664 299.082 171.202 299.082 170.624Z" fill="white"/>
<path d="M287.475 184.146C287.475 183.499 287.996 182.979 288.643 182.979C289.29 182.979 289.811 183.499 289.811 184.146C289.811 184.794 289.29 185.314 288.643 185.314C287.996 185.314 287.475 184.782 287.475 184.146Z" fill="white"/>
<path d="M275.857 196.363C275.857 195.646 276.435 195.069 277.152 195.069C277.869 195.069 278.447 195.646 278.447 196.363C278.447 197.08 277.869 197.658 277.152 197.658C276.435 197.658 275.857 197.08 275.857 196.363Z" fill="white"/>
<path d="M264.238 207.169C264.238 206.372 264.886 205.736 265.672 205.736C266.458 205.736 267.105 206.383 267.105 207.169C267.105 207.955 266.458 208.602 265.672 208.602C264.886 208.602 264.238 207.955 264.238 207.169Z" fill="white"/>
<path d="M252.62 216.45C252.62 215.583 253.325 214.878 254.192 214.878C255.06 214.878 255.765 215.583 255.765 216.45C255.765 217.317 255.06 218.022 254.192 218.022C253.325 218.022 252.62 217.317 252.62 216.45Z" fill="white"/>
<path d="M240.979 224.136C240.979 223.188 241.754 222.414 242.702 222.414C243.65 222.414 244.424 223.188 244.424 224.136C244.424 225.084 243.65 225.858 242.702 225.858C241.754 225.858 240.979 225.084 240.979 224.136Z" fill="white"/>
<path d="M229.338 230.261C229.338 229.221 230.181 228.389 231.21 228.389C232.239 228.389 233.083 229.233 233.083 230.261C233.083 231.301 232.239 232.133 231.21 232.133C230.181 232.133 229.338 231.29 229.338 230.261Z" fill="white"/>
<path d="M217.684 235.011C217.684 233.89 218.598 232.977 219.719 232.977C220.84 232.977 221.754 233.89 221.754 235.011C221.754 236.133 220.84 237.046 219.719 237.046C218.598 237.046 217.684 236.144 217.684 235.011Z" fill="white"/>
<path d="M206.02 238.906C206.02 237.681 207.014 236.699 208.228 236.699C209.453 236.699 210.436 237.693 210.436 238.906C210.436 240.12 209.441 241.114 208.228 241.114C207.014 241.114 206.02 240.132 206.02 238.906Z" fill="white"/>
<path d="M194.351 242.824C194.351 241.507 195.415 240.444 196.733 240.444C198.051 240.444 199.114 241.507 199.114 242.824C199.114 244.142 198.051 245.205 196.733 245.205C195.415 245.205 194.351 244.142 194.351 242.824Z" fill="white"/>
<path d="M182.675 248.002C182.675 246.581 183.831 245.425 185.253 245.425C186.675 245.425 187.831 246.581 187.831 248.002C187.831 249.424 186.675 250.58 185.253 250.58C183.831 250.58 182.675 249.424 182.675 248.002Z" fill="white"/>
<path d="M170.999 255.492C170.999 253.966 172.236 252.729 173.762 252.729C175.288 252.729 176.525 253.966 176.525 255.492C176.525 257.017 175.288 258.254 173.762 258.254C172.236 258.242 170.999 257.006 170.999 255.492Z" fill="white"/>
<path d="M159.323 264.83C159.323 263.201 160.641 261.883 162.271 261.883C163.901 261.883 165.219 263.201 165.219 264.83C165.219 266.46 163.901 267.778 162.271 267.778C160.641 267.778 159.323 266.46 159.323 264.83Z" fill="white"/>
<path d="M147.658 275.22C147.658 273.487 149.057 272.088 150.791 272.088C152.525 272.088 153.924 273.487 153.924 275.22C153.924 276.954 152.525 278.353 150.791 278.353C149.057 278.353 147.658 276.943 147.658 275.22Z" fill="white"/>
<path d="M135.994 285.946C135.994 284.12 137.473 282.641 139.3 282.641C141.126 282.641 142.606 284.12 142.606 285.946C142.606 287.772 141.126 289.252 139.3 289.252C137.473 289.252 135.994 287.772 135.994 285.946Z" fill="white"/>
<path d="M124.341 296.545C124.341 294.626 125.901 293.066 127.82 293.066C129.739 293.066 131.3 294.626 131.3 296.545C131.3 298.463 129.739 300.023 127.82 300.023C125.901 300.023 124.341 298.463 124.341 296.545Z" fill="white"/>
<path d="M112.7 306.739C112.7 304.727 114.33 303.098 116.341 303.098C118.353 303.098 119.983 304.727 119.983 306.739C119.983 308.75 118.353 310.379 116.341 310.379C114.33 310.379 112.7 308.75 112.7 306.739Z" fill="white"/>
<path d="M101.058 316.366C101.058 314.274 102.757 312.563 104.861 312.563C106.965 312.563 108.664 314.262 108.664 316.366C108.664 318.458 106.965 320.168 104.861 320.168C102.757 320.168 101.058 318.469 101.058 316.366Z" fill="white"/>
<path d="M277.418 154.755C277.418 154.177 277.88 153.715 278.458 153.715C279.036 153.715 279.499 154.177 279.499 154.755C279.499 155.333 279.036 155.795 278.458 155.795C277.88 155.795 277.418 155.333 277.418 154.755Z" fill="white"/>
<path d="M265.811 171.525C265.811 170.878 266.331 170.358 266.979 170.358C267.626 170.358 268.146 170.878 268.146 171.525C268.146 172.173 267.626 172.693 266.979 172.693C266.331 172.693 265.811 172.173 265.811 171.525Z" fill="white"/>
<path d="M254.204 186.597C254.204 185.88 254.782 185.302 255.499 185.302C256.216 185.302 256.794 185.88 256.794 186.597C256.794 187.313 256.216 187.891 255.499 187.891C254.782 187.891 254.204 187.313 254.204 186.597Z" fill="white"/>
<path d="M242.597 199.795C242.597 198.998 243.245 198.362 244.031 198.362C244.829 198.362 245.464 199.009 245.464 199.795C245.464 200.593 244.817 201.228 244.031 201.228C243.233 201.228 242.597 200.581 242.597 199.795Z" fill="white"/>
<path d="M230.967 210.96C230.967 210.093 231.672 209.388 232.54 209.388C233.407 209.388 234.112 210.093 234.112 210.96C234.112 211.827 233.407 212.532 232.54 212.532C231.672 212.532 230.967 211.827 230.967 210.96Z" fill="white"/>
<path d="M219.338 219.963C219.338 219.016 220.112 218.241 221.06 218.241C222.008 218.241 222.783 219.016 222.783 219.963C222.783 220.911 222.008 221.686 221.06 221.686C220.112 221.686 219.338 220.911 219.338 219.963Z" fill="white"/>
<path d="M207.696 226.805C207.696 225.765 208.54 224.933 209.569 224.933C210.598 224.933 211.442 225.777 211.442 226.805C211.442 227.834 210.598 228.678 209.569 228.678C208.54 228.678 207.696 227.834 207.696 226.805Z" fill="white"/>
<path d="M196.039 231.671C196.039 230.55 196.952 229.637 198.074 229.637C199.195 229.637 200.108 230.55 200.108 231.671C200.108 232.792 199.195 233.706 198.074 233.706C196.952 233.706 196.039 232.792 196.039 231.671Z" fill="white"/>
<path d="M184.375 235.116C184.375 233.89 185.369 232.908 186.583 232.908C187.808 232.908 188.791 233.902 188.791 235.116C188.791 236.329 187.796 237.323 186.583 237.323C185.369 237.323 184.375 236.341 184.375 235.116Z" fill="white"/>
<path d="M172.699 238.225C172.699 236.907 173.762 235.844 175.08 235.844C176.398 235.844 177.462 236.907 177.462 238.225C177.462 239.542 176.398 240.606 175.08 240.606C173.774 240.617 172.699 239.542 172.699 238.225Z" fill="white"/>
<path d="M161.023 242.536C161.023 241.114 162.179 239.958 163.601 239.958C165.022 239.958 166.179 241.114 166.179 242.536C166.179 243.957 165.022 245.113 163.601 245.113C162.179 245.113 161.023 243.957 161.023 242.536Z" fill="white"/>
<path d="M149.346 249.389C149.346 247.864 150.583 246.627 152.109 246.627C153.635 246.627 154.872 247.864 154.872 249.389C154.872 250.915 153.635 252.152 152.109 252.152C150.583 252.152 149.346 250.915 149.346 249.389Z" fill="white"/>
<path d="M137.67 258.508C137.67 256.879 138.988 255.561 140.618 255.561C142.248 255.561 143.566 256.879 143.566 258.508C143.566 260.138 142.248 261.455 140.618 261.455C138.988 261.455 137.67 260.138 137.67 258.508Z" fill="white"/>
<path d="M126.006 269.095C126.006 267.362 127.404 265.963 129.139 265.963C130.873 265.963 132.271 267.362 132.271 269.095C132.271 270.829 130.873 272.227 129.139 272.227C127.416 272.216 126.006 270.817 126.006 269.095Z" fill="white"/>
<path d="M114.353 280.422C114.353 278.595 115.832 277.116 117.659 277.116C119.485 277.116 120.965 278.595 120.965 280.422C120.965 282.248 119.485 283.727 117.659 283.727C115.832 283.727 114.353 282.248 114.353 280.422Z" fill="white"/>
<path d="M102.699 291.979C102.699 290.061 104.26 288.5 106.179 288.5C108.098 288.5 109.659 290.061 109.659 291.979C109.659 293.898 108.098 295.458 106.179 295.458C104.26 295.458 102.699 293.898 102.699 291.979Z" fill="white"/>
<path d="M91.0581 303.433C91.0581 301.422 92.6881 299.792 94.6997 299.792C96.7112 299.792 98.3412 301.422 98.3412 303.433C98.3412 305.444 96.7112 307.073 94.6997 307.073C92.6881 307.073 91.0581 305.444 91.0581 303.433Z" fill="white"/>
<path d="M79.4164 314.575C79.4164 312.483 81.1158 310.772 83.2198 310.772C85.3238 310.772 87.0232 312.471 87.0232 314.575C87.0232 316.678 85.3238 318.377 83.2198 318.377C81.1158 318.377 79.4164 316.667 79.4164 314.575Z" fill="white"/>
<path d="M255.742 135.858C255.742 135.28 256.204 134.818 256.782 134.818C257.36 134.818 257.823 135.28 257.823 135.858C257.823 136.436 257.36 136.899 256.782 136.899C256.204 136.899 255.742 136.436 255.742 135.858Z" fill="white"/>
<path d="M244.158 156.801C244.158 156.154 244.679 155.634 245.326 155.634C245.973 155.634 246.494 156.154 246.494 156.801C246.494 157.448 245.973 157.968 245.326 157.968C244.679 157.968 244.158 157.448 244.158 156.801Z" fill="white"/>
<path d="M232.551 175.548C232.551 174.831 233.129 174.253 233.846 174.253C234.563 174.253 235.141 174.831 235.141 175.548C235.141 176.264 234.563 176.842 233.846 176.842C233.129 176.842 232.551 176.264 232.551 175.548Z" fill="white"/>
<path d="M220.944 191.844C220.944 191.046 221.592 190.411 222.378 190.411C223.164 190.411 223.811 191.058 223.811 191.844C223.811 192.641 223.164 193.277 222.378 193.277C221.592 193.277 220.944 192.63 220.944 191.844Z" fill="white"/>
<path d="M209.326 205.47C209.326 204.603 210.031 203.898 210.898 203.898C211.766 203.898 212.471 204.603 212.471 205.47C212.471 206.337 211.766 207.042 210.898 207.042C210.031 207.042 209.326 206.337 209.326 205.47Z" fill="white"/>
<path d="M197.693 216.242C197.693 215.294 198.467 214.52 199.415 214.52C200.363 214.52 201.138 215.294 201.138 216.242C201.138 217.19 200.363 217.964 199.415 217.964C198.467 217.964 197.693 217.19 197.693 216.242Z" fill="white"/>
<path d="M186.051 224.09C186.051 223.049 186.895 222.217 187.924 222.217C188.953 222.217 189.797 223.061 189.797 224.09C189.797 225.118 188.953 225.962 187.924 225.962C186.895 225.962 186.051 225.13 186.051 224.09Z" fill="white"/>
<path d="M174.398 229.198C174.398 228.077 175.311 227.164 176.432 227.164C177.554 227.164 178.467 228.077 178.467 229.198C178.467 230.319 177.554 231.232 176.432 231.232C175.311 231.232 174.398 230.331 174.398 229.198Z" fill="white"/>
<path d="M162.733 232.226C162.733 231.001 163.727 230.019 164.941 230.019C166.167 230.019 167.149 231.013 167.149 232.226C167.149 233.44 166.155 234.434 164.941 234.434C163.716 234.434 162.733 233.44 162.733 232.226Z" fill="white"/>
<path d="M151.057 234.434C151.057 233.116 152.121 232.053 153.438 232.053C154.756 232.053 155.82 233.116 155.82 234.434C155.82 235.751 154.756 236.815 153.438 236.815C152.121 236.815 151.057 235.751 151.057 234.434Z" fill="white"/>
<path d="M139.381 237.751C139.381 236.329 140.537 235.173 141.959 235.173C143.381 235.173 144.537 236.329 144.537 237.751C144.537 239.172 143.381 240.328 141.959 240.328C140.525 240.317 139.381 239.172 139.381 237.751Z" fill="white"/>
<path d="M127.705 243.922C127.705 242.397 128.942 241.16 130.468 241.16C131.994 241.16 133.231 242.397 133.231 243.922C133.231 245.448 131.994 246.685 130.468 246.685C128.942 246.685 127.705 245.448 127.705 243.922Z" fill="white"/>
<path d="M116.029 252.799C116.029 251.169 117.346 249.852 118.976 249.852C120.606 249.852 121.924 251.169 121.924 252.799C121.924 254.429 120.606 255.746 118.976 255.746C117.346 255.746 116.029 254.429 116.029 252.799Z" fill="white"/>
<path d="M104.364 263.582C104.364 261.849 105.763 260.45 107.497 260.45C109.231 260.45 110.63 261.849 110.63 263.582C110.63 265.316 109.231 266.714 107.497 266.714C105.763 266.714 104.364 265.316 104.364 263.582Z" fill="white"/>
<path d="M92.6996 275.521C92.6996 273.695 94.1793 272.216 96.0059 272.216C97.8325 272.216 99.3122 273.695 99.3122 275.521C99.3122 277.347 97.8325 278.827 96.0059 278.827C94.1909 278.827 92.6996 277.347 92.6996 275.521Z" fill="white"/>
<path d="M81.0583 288.015C81.0583 286.096 82.619 284.536 84.5381 284.536C86.4571 284.536 88.0178 286.096 88.0178 288.015C88.0178 289.934 86.4571 291.494 84.5381 291.494C82.619 291.494 81.0583 289.934 81.0583 288.015Z" fill="white"/>
<path d="M69.4167 300.694C69.4167 298.683 71.0467 297.053 73.0583 297.053C75.0698 297.053 76.6998 298.683 76.6998 300.694C76.6998 302.705 75.0698 304.334 73.0583 304.334C71.0467 304.334 69.4167 302.705 69.4167 300.694Z" fill="white"/>
<path d="M57.775 313.28C57.775 311.188 59.4744 309.478 61.5784 309.478C63.6824 309.478 65.3818 311.177 65.3818 313.28C65.3818 315.384 63.6824 317.083 61.5784 317.083C59.4744 317.083 57.775 315.372 57.775 313.28Z" fill="white"/>
<path d="M234.077 114.361C234.077 113.783 234.54 113.321 235.118 113.321C235.696 113.321 236.158 113.783 236.158 114.361C236.158 114.939 235.696 115.401 235.118 115.401C234.54 115.401 234.077 114.939 234.077 114.361Z" fill="white"/>
<path d="M222.494 140.273C222.494 139.626 223.014 139.106 223.661 139.106C224.309 139.106 224.829 139.626 224.829 140.273C224.829 140.921 224.309 141.441 223.661 141.441C223.014 141.441 222.494 140.909 222.494 140.273Z" fill="white"/>
<path d="M210.898 163.377C210.898 162.661 211.476 162.083 212.193 162.083C212.91 162.083 213.488 162.661 213.488 163.377C213.488 164.094 212.91 164.672 212.193 164.672C211.476 164.683 210.898 164.094 210.898 163.377Z" fill="white"/>
<path d="M199.288 183.395C199.288 182.598 199.935 181.962 200.721 181.962C201.507 181.962 202.155 182.609 202.155 183.395C202.155 184.181 201.507 184.828 200.721 184.828C199.935 184.828 199.288 184.181 199.288 183.395Z" fill="white"/>
<path d="M187.669 199.992C187.669 199.125 188.375 198.42 189.242 198.42C190.109 198.42 190.814 199.125 190.814 199.992C190.814 200.859 190.109 201.564 189.242 201.564C188.375 201.564 187.669 200.859 187.669 199.992Z" fill="white"/>
<path d="M176.051 212.902C176.051 211.954 176.825 211.18 177.773 211.18C178.721 211.18 179.496 211.954 179.496 212.902C179.496 213.849 178.721 214.624 177.773 214.624C176.825 214.624 176.051 213.849 176.051 212.902Z" fill="white"/>
<path d="M164.41 222.009C164.41 220.969 165.254 220.137 166.282 220.137C167.311 220.137 168.155 220.98 168.155 222.009C168.155 223.049 167.311 223.881 166.282 223.881C165.254 223.881 164.41 223.049 164.41 222.009Z" fill="white"/>
<path d="M152.757 227.499C152.757 226.378 153.67 225.465 154.791 225.465C155.913 225.465 156.826 226.378 156.826 227.499C156.826 228.62 155.913 229.533 154.791 229.533C153.67 229.533 152.757 228.62 152.757 227.499Z" fill="white"/>
<path d="M141.092 230.1C141.092 228.874 142.086 227.892 143.3 227.892C144.514 227.892 145.508 228.886 145.508 230.1C145.508 231.313 144.514 232.307 143.3 232.307C142.086 232.307 141.092 231.313 141.092 230.1Z" fill="white"/>
<path d="M129.416 231.336C129.416 230.019 130.48 228.955 131.797 228.955C133.115 228.955 134.179 230.019 134.179 231.336C134.179 232.654 133.115 233.717 131.797 233.717C130.48 233.729 129.416 232.654 129.416 231.336Z" fill="white"/>
<path d="M117.728 233.579C117.728 232.157 118.884 231.001 120.306 231.001C121.728 231.001 122.884 232.157 122.884 233.579C122.884 235 121.728 236.156 120.306 236.156C118.884 236.156 117.728 235 117.728 233.579Z" fill="white"/>
<path d="M106.052 239.034C106.052 237.508 107.289 236.271 108.815 236.271C110.341 236.271 111.578 237.508 111.578 239.034C111.578 240.559 110.341 241.796 108.815 241.796C107.289 241.796 106.052 240.559 106.052 239.034Z" fill="white"/>
<path d="M94.3762 247.667C94.3762 246.038 95.6941 244.72 97.3241 244.72C98.9541 244.72 100.272 246.038 100.272 247.667C100.272 249.297 98.9541 250.614 97.3241 250.614C95.6941 250.614 94.3762 249.297 94.3762 247.667Z" fill="white"/>
<path d="M82.7114 258.659C82.7114 256.925 84.1103 255.526 85.8443 255.526C87.5784 255.526 88.9772 256.925 88.9772 258.659C88.9772 260.392 87.5784 261.791 85.8443 261.791C84.1218 261.791 82.7114 260.381 82.7114 258.659Z" fill="white"/>
<path d="M71.0582 271.187C71.0582 269.361 72.5379 267.882 74.3645 267.882C76.191 267.882 77.6708 269.361 77.6708 271.187C77.6708 273.013 76.191 274.493 74.3645 274.493C72.5379 274.504 71.0582 273.013 71.0582 271.187Z" fill="white"/>
<path d="M59.4052 284.617C59.4052 282.699 60.9658 281.138 62.8849 281.138C64.8039 281.138 66.3646 282.699 66.3646 284.617C66.3646 286.536 64.8039 288.096 62.8849 288.096C60.9658 288.096 59.4052 286.536 59.4052 284.617Z" fill="white"/>
<path d="M47.7752 298.452C47.7752 296.441 49.4052 294.811 51.4168 294.811C53.4283 294.811 55.0583 296.441 55.0583 298.452C55.0583 300.463 53.4283 302.092 51.4168 302.092C49.4052 302.092 47.7752 300.463 47.7752 298.452Z" fill="white"/>
<path d="M36.134 312.413C36.134 310.321 37.8334 308.611 39.9374 308.611C42.0298 308.611 43.7408 310.31 43.7408 312.413C43.7408 314.517 42.0414 316.216 39.9374 316.216C37.8334 316.204 36.134 314.505 36.134 312.413Z" fill="white"/>
<rect x="168.142" y="145.377" width="34.2214" height="34.2214" rx="17.1107" stroke="white" stroke-width="1.11592"/>
<path fill-rule="evenodd" clip-rule="evenodd" d="M185.253 165.821C187.094 165.821 188.586 164.328 188.586 162.487C188.586 160.646 187.094 159.154 185.253 159.154C183.412 159.154 181.92 160.646 181.92 162.487C181.92 164.328 183.412 165.821 185.253 165.821ZM185.253 164.571C186.404 164.571 187.336 163.638 187.336 162.487C187.336 161.337 186.404 160.404 185.253 160.404C184.102 160.404 183.17 161.337 183.17 162.487C183.17 163.638 184.102 164.571 185.253 164.571Z" fill="white"/>
<path d="M179.42 162.487C179.42 159.266 182.031 156.654 185.253 156.654V157.765C182.645 157.765 180.531 159.879 180.531 162.487C180.531 165.095 182.645 167.209 185.253 167.209C187.861 167.209 189.975 165.095 189.975 162.487H191.086C191.086 165.709 188.475 168.321 185.253 168.321C182.031 168.321 179.42 165.709 179.42 162.487Z" fill="white"/>
<path fill-rule="evenodd" clip-rule="evenodd" d="M185.253 170.821C189.855 170.821 193.586 167.09 193.586 162.487C193.586 157.885 189.855 154.154 185.253 154.154C180.651 154.154 176.92 157.885 176.92 162.487C176.92 167.09 180.651 170.821 185.253 170.821ZM185.253 169.571C189.165 169.571 192.336 166.399 192.336 162.487C192.336 158.575 189.165 155.404 185.253 155.404C181.341 155.404 178.17 158.575 178.17 162.487C178.17 166.399 181.341 169.571 185.253 169.571Z" fill="white"/>
<rect x="310.853" y="105.494" width="34.2214" height="34.2214" rx="17.1107" stroke="white" stroke-width="1.11592"/>
<g clip-path="url(#clip1_7_835)">
<path d="M328.197 115.057C328.943 115.274 329.647 115.59 330.293 115.99L330.295 115.99C333.499 115.99 336.096 118.587 336.096 121.791C336.096 122.8 335.839 123.746 335.389 124.57L335.148 125.009L335.706 127.09L333.664 126.543L333.633 126.561C333.332 127.261 332.94 127.912 332.472 128.5C332.955 128.343 333.414 128.137 333.844 127.885L337.474 128.858L336.485 125.17C337.034 124.166 337.346 123.015 337.346 121.791C337.346 117.897 334.189 114.74 330.295 114.74C329.564 114.74 328.86 114.851 328.197 115.057Z" fill="white"/>
<path fill-rule="evenodd" clip-rule="evenodd" d="M320.807 126.522L320.223 128.702L322.362 128.129L322.812 128.392C323.696 128.908 324.725 129.205 325.827 129.205C329.136 129.205 331.818 126.522 331.818 123.213C331.818 119.904 329.136 117.222 325.827 117.222C322.518 117.222 319.836 119.904 319.836 123.213C319.836 124.255 320.101 125.232 320.566 126.083L320.807 126.522ZM318.455 130.47L319.47 126.683C318.906 125.652 318.586 124.47 318.586 123.213C318.586 119.214 321.828 115.972 325.827 115.972C329.826 115.972 333.068 119.214 333.068 123.213C333.068 127.212 329.826 130.455 325.827 130.455C324.498 130.455 323.252 130.096 322.182 129.471L318.455 130.47Z" fill="white"/>
</g>
<rect x="438.085" y="61.9132" width="34.2214" height="34.2214" rx="17.1107" stroke="white" stroke-width="1.11592"/>
<path fill-rule="evenodd" clip-rule="evenodd" d="M450.705 71.4718L455.196 75.962L459.686 71.4718H462.748V74.5336L458.257 79.0239L462.424 83.1905H459.362V86.2523L455.196 82.0857L450.705 86.5759H447.644V83.5141L452.134 79.0239L447.644 74.5336V71.4718H450.705ZM459.362 87.3572L455.196 83.1905L451.029 87.3572H446.862V83.1905L451.029 79.0239L446.862 74.8572V70.6905H451.029L455.196 74.8572L459.362 70.6905H463.529V74.8572L459.362 79.0239L463.529 83.1905V87.3572H459.362Z" fill="white"/>
<rect x="505.768" y="142.587" width="34.2214" height="34.2214" rx="17.1107" stroke="white" stroke-width="1.11592"/>
<path d="M522.879 151.572C518.399 151.572 514.754 155.217 514.754 159.697C514.754 164.177 518.399 167.822 522.879 167.822C527.359 167.822 531.004 164.177 531.004 159.697C531.004 155.217 527.359 151.572 522.879 151.572ZM522.879 152.822C526.682 152.822 529.754 155.894 529.754 159.697C529.754 163.501 526.682 166.572 522.879 166.572C519.075 166.572 516.004 163.501 516.004 159.697C516.004 155.894 519.075 152.822 522.879 152.822ZM522.879 154.697C521.16 154.697 519.754 156.104 519.754 157.822C519.754 158.77 520.196 159.612 520.867 160.186C519.461 160.916 518.504 162.385 518.504 164.072H519.754C519.754 162.339 521.145 160.947 522.879 160.947C524.612 160.947 526.004 162.339 526.004 164.072H527.254C527.254 162.385 526.297 160.916 524.89 160.186C525.562 159.612 526.004 158.77 526.004 157.822C526.004 156.104 524.597 154.697 522.879 154.697ZM522.879 155.947C523.921 155.947 524.754 156.78 524.754 157.822C524.754 158.865 523.921 159.697 522.879 159.697C521.836 159.697 521.004 158.865 521.004 157.822C521.004 156.78 521.836 155.947 522.879 155.947Z" fill="white"/>
<rect x="388.625" y="97.2505" width="34.2214" height="34.2214" rx="17.1107" stroke="white" stroke-width="1.11592"/>
<path d="M404.738 115.234C404.888 115.384 405.066 115.504 405.263 115.585C405.459 115.666 405.67 115.708 405.882 115.708C406.095 115.708 406.305 115.666 406.502 115.585C406.698 115.504 406.877 115.384 407.027 115.234L411.605 108.367L404.738 112.945C404.587 113.095 404.468 113.273 404.386 113.47C404.305 113.666 404.263 113.877 404.263 114.089C404.263 114.302 404.305 114.512 404.386 114.709C404.468 114.905 404.587 115.084 404.738 115.234Z" fill="white"/>
<path d="M412.819 114.361C412.819 118.273 409.648 121.444 405.736 121.444C401.824 121.444 398.652 118.273 398.652 114.361C398.652 110.449 401.824 107.278 405.736 107.278C407.089 107.278 408.353 107.657 409.428 108.315L410.557 107.563C409.196 106.596 407.532 106.028 405.736 106.028C401.133 106.028 397.402 109.759 397.402 114.361C397.402 118.964 401.133 122.694 405.736 122.694C410.338 122.694 414.069 118.964 414.069 114.361C414.069 112.498 413.458 110.778 412.425 109.39L411.68 110.508C412.4 111.617 412.819 112.94 412.819 114.361Z" fill="white"/>
<rect x="91.7038" y="135.376" width="34.2214" height="34.2214" rx="17.1107" stroke="white" stroke-width="1.11592"/>
<g clip-path="url(#clip2_7_835)">
<path d="M111.314 155.172L112.853 156.654L116.314 153.32M110.698 159.095C109.641 159.664 108.432 159.987 107.148 159.987C103.006 159.987 99.6478 156.629 99.6478 152.487C99.6478 148.345 103.006 144.987 107.148 144.987C110.609 144.987 113.522 147.331 114.387 150.519M113.509 160.82C111.884 160.604 108.814 159.087 108.814 151.287C108.814 151.287 111.884 151.287 113.509 149.987C115.134 151.287 118.203 151.287 118.203 151.287C118.203 159.087 115.134 160.604 113.509 160.82Z" stroke="white" stroke-width="1.5"/>
</g>
<rect x="261.744" y="94.358" width="34.2214" height="34.2214" rx="17.1107" stroke="white" stroke-width="1.11592"/>
<path fill-rule="evenodd" clip-rule="evenodd" d="M278.855 118.552C282.767 118.552 285.938 115.381 285.938 111.469C285.938 107.557 282.767 104.385 278.855 104.385C274.943 104.385 271.772 107.557 271.772 111.469C271.772 115.381 274.943 118.552 278.855 118.552ZM278.855 119.802C283.457 119.802 287.188 116.071 287.188 111.469C287.188 106.866 283.457 103.135 278.855 103.135C274.253 103.135 270.522 106.866 270.522 111.469C270.522 116.071 274.253 119.802 278.855 119.802Z" fill="white"/>
<path fill-rule="evenodd" clip-rule="evenodd" d="M274.871 114.711C274.871 114.366 275.151 114.086 275.496 114.086L282.214 114.086C282.559 114.086 282.839 114.366 282.839 114.711C282.839 115.057 282.559 115.336 282.214 115.336L275.496 115.336C275.151 115.336 274.871 115.057 274.871 114.711Z" fill="white"/>
<path fill-rule="evenodd" clip-rule="evenodd" d="M282.655 108.054C282.9 108.298 282.9 108.693 282.655 108.937L278.78 112.813C278.373 113.22 277.713 113.22 277.306 112.813L275.054 110.561C274.81 110.317 274.81 109.921 275.054 109.677C275.298 109.433 275.694 109.433 275.938 109.677L278.043 111.782L281.772 108.054C282.016 107.809 282.411 107.809 282.655 108.054Z" fill="white"/>
<path d="M108.815 170.155L108.815 238.112" stroke="white" stroke-width="1.11592" stroke-linecap="round"/>
<path d="M185.346 180.007L185.346 247.424" stroke="white" stroke-width="1.11592" stroke-linecap="round"/>
<path d="M279.163 129.042L279.163 330.591" stroke="white" stroke-width="1.11592" stroke-linecap="round"/>
<path d="M328.064 140.016L328.064 267.72" stroke="white" stroke-width="1.11592" stroke-linecap="round"/>
<path d="M455.295 96.6925L455.295 339.9" stroke="white" stroke-width="1.11592" stroke-linecap="round"/>
<path d="M405.736 132.03V256.058" stroke="white" stroke-width="1.11592" stroke-linecap="round"/>
<path d="M522.879 177.366V301.394" stroke="white" stroke-width="1.11592" stroke-linecap="round"/>
</g>
<defs>
<filter id="filter0_f_7_835" x="-39.3361" y="-807.847" width="1530.29" height="1559.39" filterUnits="userSpaceOnUse" color-interpolation-filters="sRGB">
<feFlood flood-opacity="0" result="BackgroundImageFix"/>
<feBlend mode="normal" in="SourceGraphic" in2="BackgroundImageFix" result="shape"/>
<feGaussianBlur stdDeviation="273.438" result="effect1_foregroundBlur_7_835"/>
</filter>
<linearGradient id="paint0_linear_7_835" x1="350" y1="0" x2="350" y2="320" gradientUnits="userSpaceOnUse">
<stop stop-color="#043652"/>
<stop offset="1" stop-color="#0A172C"/>
</linearGradient>
<clipPath id="clip0_7_835">
<rect width="700" height="320" rx="20" transform="matrix(-1 0 0 1 700 0)" fill="white"/>
</clipPath>
<clipPath id="clip1_7_835">
<rect width="20" height="20" fill="white" transform="translate(317.964 112.605)"/>
</clipPath>
<clipPath id="clip2_7_835">
<rect width="20" height="20" fill="white" transform="translate(98.8145 142.487)"/>
</clipPath>
</defs>
</svg>

